# xmcd CD database file
#
# Track frame offsets:
#	150
#	12740
#	25785
#	38525
#	53665
#	65172
#	80670
#	90522
#	102782
#	120597
#	136397
#	162910
#
# Disc length: 2435 seconds
#
# Revision: 0
# Processed by: cddbd v1.5.1PL0 Copyright (c) Steve Scherf et al.
# Submitted via: CDex 1.51
#
DISCID=9509810c
DTITLE=チン☆パラ - チン派ロック
DYEAR=2002
DGENRE=Acapella
TTITLE0=Fly up high
TTITLE1=Let it go!
TTITLE2=シブヤ
TTITLE3=縞瑪瑙
TTITLE4=Sound Break -Album Ver.-
TTITLE5=Spiral Days -Album Mix Ver.-
TTITLE6=Seaside Bound
TTITLE7=Special Mind
TTITLE8=境界線
TTITLE9=In the end
TTITLE10=星に願いを
TTITLE11=Let it go! P.V. clip
EXTD=YEAR: 2002
EXTT0=
EXTT1=
EXTT2=
EXTT3=
EXTT4=
EXTT5=
EXTT6=
EXTT7=
EXTT8=
EXTT9=
EXTT10=
EXTT11=
PLAYORDER=
